<svg xmlns="http://www.w3.org/2000/svg" version="1.1" width="500" height="500">
<path d="M0 0 C2.15327304 -0.00571148 4.30654305 -0.01267873 6.45980835 -0.02079773 C12.27608712 -0.03865953 18.09221445 -0.03757374 23.90851235 -0.03185534 C28.7789108 -0.02875296 33.6492806 -0.03486769 38.51967496 -0.04089409 C50.01786119 -0.05491521 61.51597309 -0.05339851 73.01416016 -0.04199219 C84.84243793 -0.03051708 96.6704888 -0.04458212 108.49873668 -0.07138866 C118.68516798 -0.0936027 128.87152836 -0.10017009 139.05798215 -0.09431225 C145.12815519 -0.09095467 151.19818287 -0.09327756 157.26833534 -0.11056328 C162.98045208 -0.12612111 168.69223487 -0.12197931 174.40433884 -0.10325813 C176.48911542 -0.09959643 178.57391724 -0.10260924 180.65867043 -0.11314392 C196.8214886 -0.18852151 211.24353161 1.22286746 225.6159668 9.34155273 C226.7915918 9.96707031 226.7915918 9.96707031 227.9909668 10.60522461 C232.60662618 13.11897176 236.6626864 15.78981358 240.4909668 19.40405273 C240.4909668 20.06405273 240.4909668 20.72405273 240.4909668 21.40405273 C241.1303418 21.67217773 241.7697168 21.94030273 242.4284668 22.21655273 C244.4909668 23.40405273 244.4909668 23.40405273 245.4909668 26.40405273 C246.1509668 26.40405273 246.8109668 26.40405273 247.4909668 26.40405273 C263.97137455 45.98515576 266.82269751 68.82995916 266.73388672 93.38549805 C266.73496269 95.13698395 266.73690602 96.88846951 266.73963928 98.63995361 C266.74444482 103.35563978 266.73688225 108.07122978 266.72668624 112.78690434 C266.71781505 117.7630252 266.71966505 122.73914384 266.720047 127.715271 C266.71911315 136.08062314 266.71047359 144.44593882 266.69677734 152.8112793 C266.68111675 162.41032562 266.67577736 172.00933191 266.6765129 181.60839009 C266.67719522 191.91262117 266.67020998 202.21683731 266.66106629 212.5210638 C266.65896007 215.4480972 266.65822855 218.37512809 266.65782738 221.30216217 C266.64829971 256.25115727 266.64829971 256.25115727 266.10546875 272.83666992 C266.07525981 273.87199482 266.04505087 274.90731972 266.01392651 275.9740181 C265.19414741 296.84926215 257.89678589 316.04934735 243.4909668 331.40405273 C238.89302865 335.40405273 238.89302865 335.40405273 236.4909668 335.40405273 C236.4909668 336.06405273 236.4909668 336.72405273 236.4909668 337.40405273 C234.24820496 338.97186735 232.03044775 340.39210267 229.6784668 341.77905273 C228.99647217 342.18389893 228.31447754 342.58874512 227.61181641 343.00585938 C222.10894132 346.1958103 216.60802277 348.61949832 210.4909668 350.40405273 C209.80905273 350.61545898 209.12713867 350.82686523 208.42456055 351.04467773 C196.62690545 354.38138827 183.89044658 353.55298009 171.75366211 353.54931641 C169.76655006 353.55231277 167.7794386 353.55571639 165.79232788 353.55949402 C160.42023948 353.56828943 155.04816703 353.57067024 149.67607212 353.5713098 C146.3128016 353.57202282 142.94953508 353.57416188 139.58626556 353.57680702 C127.83314254 353.58604555 116.08003083 353.59014376 104.3269043 353.58935547 C93.40302859 353.58875502 82.47920231 353.59930433 71.5553391 353.61509913 C62.14943818 353.62821036 52.74355336 353.63353787 43.33764338 353.63290006 C37.73196722 353.63264613 32.12633503 353.63543883 26.52066803 353.64607811 C21.24450101 353.65581963 15.96841948 353.6557971 10.6922493 353.64856148 C8.76669565 353.64752314 6.8411365 353.64983336 4.91559219 353.65592194 C-24.0649517 353.74155255 -47.92227977 348.3421359 -69.12036133 327.30444336 C-83.28932677 312.51547171 -88.90320987 291.88618205 -89.02075195 271.84936523 C-89.03888443 270.61817963 -89.05701691 269.38699402 -89.07569885 268.11849976 C-89.12484628 264.65859518 -89.15441268 261.1987709 -89.17939758 257.73861694 C-89.19670291 255.50716989 -89.21887 253.27582157 -89.24255371 251.04443359 C-89.36896088 239.02597573 -89.43657196 227.00744995 -89.49214935 214.98847961 C-89.50701936 211.83158967 -89.52275461 208.67470533 -89.5388971 205.51782167 C-89.63861156 185.96749295 -89.70404582 166.41725157 -89.74279577 146.86670959 C-89.75409963 141.46280987 -89.77237333 136.05896045 -89.79330444 130.65509033 C-89.81891668 123.96230217 -89.83282453 117.26959789 -89.83307248 110.57675922 C-89.83343561 107.10602247 -89.83846494 103.63546917 -89.85659981 100.16477585 C-89.92052391 85.93053912 -89.84157326 72.30318961 -86.5090332 58.40405273 C-86.2758136 57.42988403 -86.04259399 56.45571533 -85.80230713 55.45202637 C-81.10036317 37.13031549 -67.6060075 20.54567903 -51.45043945 10.96264648 C-34.28455267 1.86677819 -19.11127996 -0.04597492 0 0 Z M17.4909668 126.27905273 C13.07075244 131.49736135 13.33952961 137.0146989 13.32983398 143.60327148 C13.32486908 144.41527008 13.31990417 145.22726868 13.31478882 146.06387329 C13.30022854 148.73977516 13.29337696 151.41561783 13.2878418 154.09155273 C13.28208715 155.95572918 13.27632946 157.81990561 13.27056885 159.68408203 C13.26007763 163.58781204 13.25422206 167.49152156 13.25073242 171.39526367 C13.24523873 176.39554009 13.22118416 181.39554544 13.19276047 186.39573669 C13.17413642 190.24418939 13.16892871 194.0925766 13.16739655 197.94107056 C13.16437111 199.7846526 13.15634624 201.62823351 13.14321136 203.47177124 C13.12614884 206.04966943 13.12803101 208.62690217 13.13452148 211.20483398 C13.1253067 211.96446442 13.11609192 212.72409485 13.1065979 213.50674438 C13.14207952 218.00752013 13.80302727 220.78132901 16.4909668 224.40405273 C17.1097168 225.27030273 17.1097168 225.27030273 17.7409668 226.15405273 C20.58666936 228.18669742 23.0409712 228.28710373 26.4909668 228.40405273 C31.30170067 226.7387987 33.28792242 224.93236058 35.4909668 220.40405273 C35.95883598 217.31879886 35.95883598 217.31879886 35.92333984 213.96142578 C35.943134 212.68047531 35.96292816 211.39952484 35.98332214 210.07975769 C35.9900909 208.69176379 35.99653788 207.30376828 36.00268555 205.91577148 C36.01954063 204.4880062 36.03769199 203.06025568 36.05708313 201.63252258 C36.10449977 197.8859824 36.13436267 194.13950209 36.16052246 190.39276123 C36.19037034 186.5650246 36.23688606 182.73749409 36.28198242 178.90991211 C36.36792052 171.40806145 36.4353076 163.90619565 36.4909668 156.40405273 C39.4609668 155.90905273 39.4609668 155.90905273 42.4909668 155.40405273 C42.7590918 155.98155273 43.0272168 156.55905273 43.3034668 157.15405273 C44.52025869 159.45955316 45.79430559 161.42461466 47.4909668 163.40405273 C48.1509668 163.40405273 48.8109668 163.40405273 49.4909668 163.40405273 C49.4909668 164.06405273 49.4909668 164.72405273 49.4909668 165.40405273 C50.1509668 165.40405273 50.8109668 165.40405273 51.4909668 165.40405273 C51.7797168 166.00217773 52.0684668 166.60030273 52.3659668 167.21655273 C53.53838705 169.59733065 53.53838705 169.59733065 55.4909668 172.40405273 C56.1509668 172.40405273 56.8109668 172.40405273 57.4909668 172.40405273 C57.7178418 172.94030273 57.9447168 173.47655273 58.1784668 174.02905273 C60.45032637 178.14003673 63.53634438 181.45260182 66.8425293 184.74780273 C69.50280423 187.41592509 72.03341612 190.16606365 74.5534668 192.96655273 C79.6413958 199.26313374 79.6413958 199.26313374 86.3034668 203.34155273 C90.42803499 203.42242662 93.18461987 202.81237951 96.4909668 200.40405273 C98.79306932 197.90640482 100.86112067 195.29236112 102.9362793 192.60327148 C106.23757116 188.36462486 109.96510924 184.51855664 113.68115234 180.64477539 C116.5637396 177.98241711 116.5637396 177.98241711 117.4909668 174.40405273 C118.1509668 174.40405273 118.8109668 174.40405273 119.4909668 174.40405273 C121.07288497 172.91979041 121.07288497 172.91979041 122.6159668 171.02905273 C123.15479492 170.40256836 123.69362305 169.77608398 124.2487793 169.13061523 C125.68563827 167.48796846 125.68563827 167.48796846 125.4909668 165.40405273 C126.1509668 165.40405273 126.8109668 165.40405273 127.4909668 165.40405273 C127.4909668 164.74405273 127.4909668 164.08405273 127.4909668 163.40405273 C128.1509668 163.40405273 128.8109668 163.40405273 129.4909668 163.40405273 C133.12730219 159.92406766 133.12730219 159.92406766 134.4909668 155.40405273 C136.4709668 155.73405273 138.4509668 156.06405273 140.4909668 156.40405273 C140.49643524 157.58676254 140.49643524 157.58676254 140.50201416 158.79336548 C140.53994198 166.23814023 140.59684824 173.6824172 140.67486954 181.12687111 C140.71431378 184.95381973 140.7465169 188.78053932 140.76196289 192.60766602 C140.7771501 196.30379452 140.81163083 199.99929325 140.85927582 203.69514084 C140.87406861 205.10241586 140.88200661 206.50978081 140.88285065 207.91713333 C140.885228 209.89416304 140.91463625 211.87110349 140.94506836 213.84790039 C140.95395081 214.97152985 140.96283325 216.0951593 140.97198486 217.25283813 C141.61168863 221.13706556 143.0725101 223.33277291 145.4909668 226.40405273 C148.56845729 228.31708737 150.34906387 228.40658672 153.9909668 228.34155273 C158.15262686 227.22682236 159.77074848 225.684316 162.4909668 222.40405273 C164.06693944 219.25210745 163.64716685 215.87075384 163.65209961 212.40942383 C163.65706451 211.58317505 163.66202942 210.75692627 163.66714478 209.90563965 C163.68178831 207.16291478 163.68857374 204.42024783 163.6940918 201.67749023 C163.69984358 199.77137246 163.70560131 197.8652547 163.71136475 195.95913696 C163.72188243 191.95590953 163.72771936 187.95270221 163.73120117 183.94946289 C163.73667277 178.83169217 163.76066894 173.71418927 163.78917313 168.5965023 C163.80784757 164.65527587 163.81300777 160.71411315 163.81453705 156.77284622 C163.81755571 154.88708668 163.82555757 153.00132804 163.83872223 151.11561203 C163.85587539 148.46855442 163.85387946 145.82214025 163.84741211 143.17504883 C163.86123428 142.01666 163.86123428 142.01666 163.87533569 140.83486938 C163.83405824 135.41147428 162.73932686 131.3580287 160.4909668 126.40405273 C158.11254103 123.9999889 158.11254103 123.9999889 155.4909668 122.40405273 C154.5009668 121.74405273 153.5109668 121.08405273 152.4909668 120.40405273 C145.49778676 119.00541673 140.68136491 119.55362183 134.3659668 123.21655273 C131.45833909 125.42887816 128.92722934 127.68117106 126.4909668 130.40405273 C126.4909668 131.06405273 126.4909668 131.72405273 126.4909668 132.40405273 C125.89799805 132.66186523 125.3050293 132.91967773 124.6940918 133.18530273 C122.31435715 134.50175169 120.98117888 135.82986056 119.2409668 137.90405273 C118.72018555 138.51249023 118.1994043 139.12092773 117.6628418 139.74780273 C116.29843683 141.33801094 116.29843683 141.33801094 116.4909668 143.40405273 C115.8309668 143.40405273 115.1709668 143.40405273 114.4909668 143.40405273 C112.98822793 144.85088326 112.98822793 144.85088326 111.4284668 146.77905273 C107.80292155 151.06239733 104.02897132 155.18777407 100.21362305 159.30249023 C98.27965278 161.20895095 98.27965278 161.20895095 98.4909668 163.40405273 C97.8309668 163.40405273 97.1709668 163.40405273 96.4909668 163.40405273 C96.4909668 164.06405273 96.4909668 164.72405273 96.4909668 165.40405273 C95.8309668 165.40405273 95.1709668 165.40405273 94.4909668 165.40405273 C93.8722168 166.20842773 93.2534668 167.01280273 92.6159668 167.84155273 C90.46555694 170.43469403 89.73702222 171.05626108 86.4909668 171.40405273 C86.4909668 170.74405273 86.4909668 170.08405273 86.4909668 169.40405273 C85.8309668 169.40405273 85.1709668 169.40405273 84.4909668 169.40405273 C84.4909668 168.74405273 84.4909668 168.08405273 84.4909668 167.40405273 C83.8309668 167.40405273 83.1709668 167.40405273 82.4909668 167.40405273 C82.4909668 166.74405273 82.4909668 166.08405273 82.4909668 165.40405273 C81.8309668 165.40405273 81.1709668 165.40405273 80.4909668 165.40405273 C80.2640918 164.86780273 80.0372168 164.33155273 79.8034668 163.77905273 C78.0352659 160.57945112 75.95426477 158.1136805 73.4909668 155.40405273 C72.8309668 155.40405273 72.1709668 155.40405273 71.4909668 155.40405273 C71.27827148 154.87295898 71.06557617 154.34186523 70.84643555 153.79467773 C68.96848687 150.48256076 66.41051281 147.89477302 63.8034668 145.15405273 C62.71418298 143.99198754 61.6256381 142.82922924 60.5378418 141.66577148 C59.74990234 140.8253833 59.74990234 140.8253833 58.94604492 139.96801758 C55.57380086 136.34342102 52.22008908 132.6587441 49.20581055 128.72827148 C45.10051448 123.408547 41.06746183 121.02739831 34.6159668 119.46655273 C27.60127185 118.95096587 22.24305923 121.13824108 17.4909668 126.27905273 Z " fill="#222327" transform="translate(161.509033203125,73.595947265625)"/>
<path d="M0 0 C1.13099121 0.00257813 2.26198242 0.00515625 3.42724609 0.0078125 C10.05295533 0.24675039 14.21009175 0.65109133 18.9375 5.4375 C20.2859479 7.22948274 21.58141257 9.06295002 22.8125 10.9375 C24.14654428 12.47601462 25.49911484 13.99878669 26.875 15.5 C27.85455413 16.64550212 28.83383662 17.79123678 29.8125 18.9375 C30.1425 19.2675 30.4725 19.5975 30.8125 19.9375 C31.10579559 25.68869243 31.1266499 31.44248371 31.16259766 37.20043945 C31.17912404 39.14131692 31.20637012 41.08213436 31.24462891 43.02270508 C31.29953898 45.82144746 31.32129648 48.61875939 31.3359375 51.41796875 C31.35860687 52.28068893 31.38127625 53.14340912 31.40463257 54.03227234 C31.39064171 58.04376737 31.15704697 61.12737094 28.8347168 64.48706055 C24.77273635 67.78054934 22.0199447 67.77905624 16.93359375 67.6640625 C16.08450943 67.66505951 15.23542511 67.66605652 14.36061096 67.66708374 C12.57112229 67.6624155 10.78161892 67.64303515 8.99243164 67.60986328 C6.2548282 67.56258339 3.52111234 67.56875594 0.78320312 67.58203125 C-0.95835652 67.57087915 -2.6998998 67.55666026 -4.44140625 67.5390625 C-5.25815323 67.54088531 -6.07490021 67.54270813 -6.91639709 67.54458618 C-10.33844487 67.45923731 -12.63060587 67.36108361 -15.40133667 65.25361633 C-17.60711475 62.39338595 -17.69848107 60.91354305 -17.72094727 57.33032227 C-17.7367836 56.20557999 -17.75261993 55.08083771 -17.76893616 53.92201233 C-17.76397629 52.71153732 -17.75901642 51.50106232 -17.75390625 50.25390625 C-17.76010483 49.00624985 -17.76630341 47.75859344 -17.77268982 46.47312927 C-17.77979555 43.83397513 -17.77854523 41.19634368 -17.76391602 38.55737305 C-17.74673783 35.18313035 -17.77021043 31.81059211 -17.80540562 28.43653965 C-17.83270709 25.2089752 -17.82264112 21.98155358 -17.81640625 18.75390625 C-17.83629356 16.94123009 -17.83629356 16.94123009 -17.85658264 15.0919342 C-17.76437201 6.79360741 -17.76437201 6.79360741 -14.99853516 2.68896484 C-10.1701503 -0.31944518 -5.56503568 -0.01938193 0 0 Z " fill="#6270E5" transform="translate(353.1875,219.0625)"/>
<path d="M0 0 C9.39838377 2.56471316 15.84988401 12.06413265 21.02392578 19.82519531 C21.29808044 21.74679565 21.29808044 21.74679565 21.33032227 23.94189453 C21.34630966 24.76640106 21.36229706 25.59090759 21.37876892 26.44039917 C21.38413162 27.32792877 21.38949432 28.21545837 21.39501953 29.12988281 C21.40856224 30.50407883 21.40856224 30.50407883 21.42237854 31.90603638 C21.43688664 33.84438812 21.44576917 35.78278889 21.44946289 37.72119141 C21.46135465 40.68248301 21.5105297 43.64168762 21.56103516 46.60253906 C21.57050005 48.48664348 21.57773477 50.37076069 21.58251953 52.25488281 C21.60205185 53.13836395 21.62158417 54.02184509 21.64170837 54.93209839 C21.61083896 59.15187293 21.38001497 61.28355557 19.0144043 64.88183594 C15.19593057 67.36326715 12.0332831 67.54746154 7.61767578 67.48925781 C6.81535522 67.49404144 6.01303467 67.49882507 5.18640137 67.50375366 C3.49534131 67.50714598 1.80421507 67.49799014 0.11328125 67.47705078 C-2.46877865 67.45027098 -5.04649256 67.47681628 -7.62841797 67.50878906 C-9.27556294 67.50548484 -10.92270521 67.49907834 -12.56982422 67.48925781 C-13.33766235 67.49937897 -14.10550049 67.50950012 -14.89660645 67.51992798 C-18.50560674 67.44139072 -20.84087057 66.90477763 -23.95996094 65.06884766 C-27.1098978 60.00102723 -26.69019716 55.11613108 -26.64013672 49.26269531 C-26.64492035 48.0386499 -26.64970398 46.81460449 -26.65463257 45.5534668 C-26.658032 42.96792311 -26.64882685 40.38233647 -26.62792969 37.796875 C-26.60116888 33.83919436 -26.62768046 29.88435023 -26.65966797 25.92675781 C-26.65636388 23.41373072 -26.64995769 20.90070539 -26.64013672 18.38769531 C-26.65025787 17.20425537 -26.66037903 16.02081543 -26.67080688 14.80151367 C-26.55471872 6.66510561 -26.55471872 6.66510561 -23.75805664 2.60571289 C-17.00069115 -1.71911963 -7.72784348 -0.96966682 0 0 Z " fill="#4DB588" transform="translate(143.97607421875,219.1748046875)"/>
<path d="M0 0 C5.0397708 0.87158389 7.19295684 4.00227538 10.4453125 7.76171875 C11.05246094 8.43525391 11.65960938 9.10878906 12.28515625 9.80273438 C21.09061173 19.6345338 21.09061173 19.6345338 22.0078125 23.38671875 C21.13203984 27.44711927 19.42051115 29.24570837 16.5859375 32.20703125 C14.85221111 34.01847641 13.22935918 35.83902723 11.6171875 37.75390625 C10.66426489 38.86085134 9.71114015 39.96762247 8.7578125 41.07421875 C8.31139404 41.6151416 7.86497559 42.15606445 7.4050293 42.71337891 C5.01578578 45.42115918 3.7285089 46.51470044 0.10546875 47.04296875 C-2.6796875 46.57421875 -2.6796875 46.57421875 -4.6796875 44.57421875 C-5.2421875 41.94921875 -5.2421875 41.94921875 -4.6796875 38.57421875 C-3.09350586 36.49462891 -3.09350586 36.49462891 -1.14453125 34.36328125 C-0.49991943 33.65123535 0.14469238 32.93918945 0.80883789 32.20556641 C1.30762451 31.66722168 1.80641113 31.12887695 2.3203125 30.57421875 C-9.96248842 30.5046887 -22.24524246 30.45139208 -34.52820015 30.41878223 C-40.23176147 30.40313065 -45.93518808 30.38190136 -51.63867188 30.34790039 C-57.14350584 30.31528927 -62.64821028 30.29736192 -68.15313339 30.28958702 C-70.2526745 30.2840467 -72.35220857 30.27322781 -74.45169449 30.25702858 C-77.39389583 30.23523128 -80.33556285 30.23225282 -83.27783203 30.23364258 C-84.14458054 30.22285675 -85.01132904 30.21207092 -85.90434265 30.20095825 C-92.28776157 30.23355535 -96.33250623 31.66372236 -101.3671875 35.76171875 C-107.20305368 42.85939383 -107.28841173 50.72329106 -107.6796875 59.57421875 C-111.02221474 59.64849713 -113.4832789 59.63968828 -116.6796875 58.57421875 C-117.19915266 46.94397111 -117.05264402 37.81585247 -109.5546875 28.26171875 C-104.97108373 23.36063593 -97.65007449 18.94309887 -90.81127644 18.43555355 C-89.75351899 18.42587472 -89.75351899 18.42587472 -88.6743927 18.41600037 C-87.86250992 18.40621155 -87.05062714 18.39642273 -86.21414185 18.38633728 C-85.32725677 18.38058182 -84.4403717 18.37482635 -83.52661133 18.36889648 C-82.58983047 18.35899689 -81.65304962 18.34909729 -80.68788147 18.33889771 C-77.58751972 18.30727786 -74.48714264 18.28252329 -71.38671875 18.2578125 C-69.23865864 18.2372434 -67.09060258 18.21624694 -64.94255066 18.19483948 C-59.28564737 18.13961432 -53.62870753 18.09020695 -47.97174072 18.04199219 C-42.20052838 17.99178044 -36.4293692 17.93609267 -30.65820312 17.88085938 C-19.33207665 17.77327235 -8.00590404 17.67182854 3.3203125 17.57421875 C2.57974609 16.85105469 2.57974609 16.85105469 1.82421875 16.11328125 C1.18355469 15.48164063 0.54289062 14.85 -0.1171875 14.19921875 C-0.75527344 13.57273438 -1.39335937 12.94625 -2.05078125 12.30078125 C-4.30406994 9.91240331 -4.65915052 8.90281045 -4.8671875 5.57421875 C-4.62050125 1.62723868 -3.84753521 0.82447183 0 0 Z " fill="#61D19E" transform="translate(291.6796875,125.42578125)"/>
<path d="M0 0 C1.23556641 0.01740234 1.23556641 0.01740234 2.49609375 0.03515625 C3.32238281 0.04417969 4.14867187 0.05320312 5 0.0625 C5.63808594 0.07410156 6.27617187 0.08570313 6.93359375 0.09765625 C7.47394279 12.19547097 7.21491314 21.21808132 -0.81640625 30.97265625 C-6.19669711 36.64350286 -12.148454 39.77788255 -20.02170753 40.20331001 C-22.43571073 40.26060822 -24.84830622 40.28683747 -27.26293945 40.30297852 C-28.18050522 40.31287811 -29.09807098 40.32277771 -30.04344177 40.33297729 C-33.06799768 40.36449526 -36.09256928 40.38931132 -39.1171875 40.4140625 C-41.21754864 40.4346404 -43.31790572 40.4556371 -45.41825867 40.47703552 C-50.94032495 40.53216977 -56.46242808 40.58161715 -61.98455811 40.62988281 C-67.62190013 40.68016101 -73.2591888 40.73581408 -78.89648438 40.79101562 C-89.9530794 40.89849142 -101.00972079 40.99995984 -112.06640625 41.09765625 C-111.56761963 41.63600098 -111.06883301 42.1743457 -110.55493164 42.72900391 C-109.91031982 43.4410498 -109.26570801 44.1530957 -108.6015625 44.88671875 C-107.95840088 45.59006348 -107.31523926 46.2934082 -106.65258789 47.01806641 C-105.06640625 49.09765625 -105.06640625 49.09765625 -104.50390625 52.47265625 C-105.06640625 55.09765625 -105.06640625 55.09765625 -107.06640625 57.09765625 C-110.66604638 57.57168293 -112.40592449 57.58044495 -115.375 55.41015625 C-116.07753906 54.64703125 -116.78007812 53.88390625 -117.50390625 53.09765625 C-118.26574219 52.28296875 -119.02757812 51.46828125 -119.8125 50.62890625 C-120.55628906 49.79359375 -121.30007812 48.95828125 -122.06640625 48.09765625 C-122.75863281 47.32421875 -123.45085937 46.55078125 -124.1640625 45.75390625 C-125.81523873 43.88234715 -127.4422113 41.99255036 -129.06640625 40.09765625 C-129.39640625 39.76765625 -129.72640625 39.43765625 -130.06640625 39.09765625 C-130.56374356 35.94785327 -130.79447819 34.13128932 -130.06640625 31.09765625 C-128.33761125 28.82038569 -126.43005242 27.03127962 -124.3046875 25.12109375 C-121.44771481 22.53835055 -119.01334492 19.68222187 -116.51171875 16.76171875 C-113.34983097 13.12127498 -113.34983097 13.12127498 -110.06640625 12.84765625 C-107.06640625 13.09765625 -107.06640625 13.09765625 -105.06640625 15.09765625 C-104.50390625 17.78515625 -104.50390625 17.78515625 -105.06640625 21.09765625 C-106.71903021 23.12549331 -108.49111322 24.83618129 -110.4375 26.58203125 C-112.17340693 28.01984362 -112.17340693 28.01984362 -113.06640625 30.09765625 C-101.07872744 30.03636471 -89.0912649 29.95920025 -77.1038208 29.86194134 C-71.53716488 29.81727197 -65.97058157 29.77800812 -60.40380859 29.7512207 C-55.02850481 29.72515371 -49.65348096 29.68472689 -44.27835083 29.63446999 C-42.23075856 29.6178243 -40.18311791 29.60629575 -38.13546753 29.60004234 C-35.26058823 29.59037636 -32.38642139 29.56228689 -29.51171875 29.5300293 C-28.25043404 29.53218193 -28.25043404 29.53218193 -26.96366882 29.53437805 C-19.43043501 29.41534696 -12.49527816 27.68163878 -7.06640625 22.09765625 C-3.57823207 16.36708439 -3.56974075 10.62546034 -3.27734375 4.01171875 C-2.99720435 0.14164482 -2.99720435 0.14164482 0 0 Z " fill="#61CB98" transform="translate(317.06640625,308.90234375)"/>
<path d="M0 0 C0.86066574 0.00007553 1.72133148 0.00015106 2.608078 0.00022888 C3.53316666 0.00539017 4.45825531 0.01055145 5.41137695 0.01586914 C6.36156204 0.01728409 7.31174713 0.01869904 8.29072571 0.02015686 C11.3270685 0.02575664 14.36333768 0.03830907 17.3996582 0.05102539 C19.45759985 0.05604042 21.51554265 0.06060332 23.57348633 0.06469727 C28.61973867 0.07572599 33.66593595 0.09299046 38.7121582 0.11352539 C38.7121582 0.44352539 38.7121582 0.77352539 38.7121582 1.11352539 C33.73076616 2.70175445 29.28050403 3.44189115 24.02075195 3.71118164 C22.95824974 3.76996742 22.95824974 3.76996742 21.87428284 3.8299408 C19.63306829 3.9528615 17.39149593 4.06510553 15.1496582 4.17602539 C12.90438286 4.29216449 10.6592778 4.41066097 8.4143219 4.53282166 C6.38031109 4.64275997 4.34592308 4.74565304 2.31152344 4.84814453 C-0.94645554 5.08835501 -4.07858708 5.51556805 -7.2878418 6.11352539 C-7.2878418 6.77352539 -7.2878418 7.43352539 -7.2878418 8.11352539 C-9.26923915 9.48109577 -11.34256391 10.61697575 -13.44018555 11.79711914 C-15.59751639 13.06064495 -15.59751639 13.06064495 -16.2878418 16.11352539 C-15.2978418 16.44352539 -14.3078418 16.77352539 -13.2878418 17.11352539 C-13.56499023 17.6562207 -13.84213867 18.19891602 -14.12768555 18.75805664 C-14.48991211 19.47348633 -14.85213867 20.18891602 -15.2253418 20.92602539 C-15.58499023 21.6337207 -15.94463867 22.34141602 -16.31518555 23.07055664 C-18.19135568 27.01126739 -18.55099564 30.48188803 -18.8503418 34.80102539 C-18.93413086 35.98051758 -19.01791992 37.16000977 -19.10424805 38.37524414 C-19.16483398 39.27887695 -19.22541992 40.18250977 -19.2878418 41.11352539 C-22.63036904 41.18780377 -25.0914332 41.17899492 -28.2878418 40.11352539 C-28.80730695 28.48327775 -28.66079832 19.35515911 -21.1628418 9.80102539 C-15.82562344 4.09412958 -7.88172181 -0.02311355 0 0 Z " fill="#6ADCA9" transform="translate(203.287841796875,143.886474609375)"/>
<path d="M0 0 C3.465 1.485 3.465 1.485 7 3 C6.67 3.66 6.34 4.32 6 5 C5.01 5 4.02 5 3 5 C3.33 7.31 3.66 9.62 4 12 C3.34 12 2.68 12 2 12 C2.66 12.66 3.32 13.32 4 14 C6.10820797 13.6814823 6.10820797 13.6814823 8 13 C7.67 13.99 7.34 14.98 7 16 C7.66 16 8.32 16 9 16 C9.33 16.66 9.66 17.32 10 18 C12.12576782 18.46651207 12.12576782 18.46651207 14.5625 18.625 C15.38878906 18.69976562 16.21507812 18.77453125 17.06640625 18.8515625 C17.70449219 18.90054687 18.34257812 18.94953125 19 19 C19 19.33 19 19.66 19 20 C12.565 20.495 12.565 20.495 6 21 C7.32 22.36125 8.64 23.7225 10 25.125 C12.72687526 27.93709011 13.91120761 29.24711454 14.375 33.1796875 C14 36 14 36 12 38 C8.40035987 38.47402668 6.66048176 38.4827887 3.69140625 36.3125 C2.98886719 35.549375 2.28632813 34.78625 1.5625 34 C0.80066406 33.1853125 0.03882813 32.370625 -0.74609375 31.53125 C-1.48988281 30.6959375 -2.23367187 29.860625 -3 29 C-3.69222656 28.2265625 -4.38445312 27.453125 -5.09765625 26.65625 C-6.74883248 24.7846909 -8.37580505 22.89489411 -10 21 C-10.33 20.67 -10.66 20.34 -11 20 C-11.49896256 16.83990376 -11.74546567 15.03961002 -11 12 C-9.19585624 9.67139585 -7.25054173 7.80557778 -5.04296875 5.859375 C-3.05169844 4.0470525 -1.54208459 2.19880832 0 0 Z M7 2 C9 3 9 3 9 3 Z " fill="#55C78E" transform="translate(198,328)"/>
<path d="M0 0 C1.23556641 0.01740234 1.23556641 0.01740234 2.49609375 0.03515625 C3.32238281 0.04417969 4.14867187 0.05320312 5 0.0625 C5.63808594 0.07410156 6.27617187 0.08570313 6.93359375 0.09765625 C7.54777438 13.84847821 6.49263026 22.75958638 -3.06640625 33.3828125 C-5.13121377 35.15322363 -6.40744607 35.71186962 -9.06640625 36.09765625 C-8.73640625 35.10765625 -8.40640625 34.11765625 -8.06640625 33.09765625 C-9.38640625 33.09765625 -10.70640625 33.09765625 -12.06640625 33.09765625 C-12.39640625 32.43765625 -12.72640625 31.77765625 -13.06640625 31.09765625 C-15.04640625 32.08765625 -15.04640625 32.08765625 -17.06640625 33.09765625 C-17.39640625 31.77765625 -17.72640625 30.45765625 -18.06640625 29.09765625 C-17.54691406 28.87851562 -17.02742188 28.659375 -16.4921875 28.43359375 C-11.30272538 26.0738753 -8.307299 23.81168206 -5.06640625 19.09765625 C-3.42919216 14.33582441 -3.63482495 9.0964877 -3.34765625 4.1171875 C-2.97727217 0.14070284 -2.97727217 0.14070284 0 0 Z " fill="#67C69D" transform="translate(317.06640625,308.90234375)"/>
<path d="M0 0 C2.42375933 1.92799037 4.70024933 3.92789754 7 6 C7.99088623 6.81839355 8.98177246 7.63678711 10.00268555 8.47998047 C15.92865171 13.75393696 19.59165439 18.28394499 20.26986694 26.37916565 C20.37580477 29.9856028 20.33609043 33.5637345 20.17993164 37.16821289 C20.06157797 39.95924334 20.03639472 42.73987425 20.02539062 45.53320312 C19.99233526 47.3230236 19.95410961 49.11275774 19.91015625 50.90234375 C19.89239891 52.13995705 19.89239891 52.13995705 19.87428284 53.40257263 C19.68320853 57.28057585 19.23620849 60.28328692 16.99804688 63.52099609 C12.96234286 66.85801064 10.21276361 66.85722749 5.12109375 66.76171875 C4.27200943 66.76508743 3.42292511 66.76845612 2.54811096 66.77192688 C0.75865603 66.77162869 -1.03085079 66.75644157 -2.82006836 66.72729492 C-5.55806192 66.6875644 -8.29122205 66.70660722 -11.02929688 66.73242188 C-12.7708521 66.72486369 -14.5123966 66.71391115 -16.25390625 66.69921875 C-17.47902672 66.7096949 -17.47902672 66.7096949 -18.72889709 66.72038269 C-22.9775233 66.61483806 -24.42212397 66.57721123 -27.54663086 63.45629883 C-28.26604858 62.24043091 -28.26604858 62.24043091 -29 61 C-25.535 60.505 -25.535 60.505 -22 60 C-22 60.66 -22 61.32 -22 62 C-21.01 62 -20.02 62 -19 62 C-19 62.99 -19 63.98 -19 65 C-18.30438965 64.96447021 -17.6087793 64.92894043 -16.89208984 64.89233398 C-13.7200181 64.73407387 -10.54755707 64.58569903 -7.375 64.4375 C-6.28058594 64.38142578 -5.18617188 64.32535156 -4.05859375 64.26757812 C-2.99511719 64.21923828 -1.93164062 64.17089844 -0.8359375 64.12109375 C0.62513428 64.05039673 0.62513428 64.05039673 2.11572266 63.97827148 C5.17499807 64.00131834 7.9999001 64.42215975 11 65 C11 64.01 11 63.02 11 62 C10.01 62 9.02 62 8 62 C8.33 60.68 8.66 59.36 9 58 C11.64 58.33 14.28 58.66 17 59 C17.33 46.13 17.66 33.26 18 20 C13.05 20 8.1 20 3 20 C0 17 0 17 -0.34057617 15.09887695 C-0.32486572 14.40238037 -0.30915527 13.70588379 -0.29296875 12.98828125 C-0.28330078 12.23095703 -0.27363281 11.47363281 -0.26367188 10.69335938 C-0.23853516 9.90767578 -0.21339844 9.12199219 -0.1875 8.3125 C-0.17396484 7.51521484 -0.16042969 6.71792969 -0.14648438 5.89648438 C-0.11117089 3.93070033 -0.05736447 1.96526418 0 0 Z " fill="#4460C0" transform="translate(365,220)"/>
<path d="M0 0 C0.66 0.99 1.32 1.98 2 3 C1.67 3.66 1.34 4.32 1 5 C1.99 5.33 2.98 5.66 4 6 C3.67 6.33 3.34 6.66 3 7 C31.05 7.33 59.1 7.66 88 8 C88 7.34 88 6.68 88 6 C88.61875 5.896875 89.2375 5.79375 89.875 5.6875 C92.36526484 5.12474627 92.36526484 5.12474627 94 2 C94.99 2 95.98 2 97 2 C95.91790362 5.13807951 95.05268214 5.96907788 92.125 7.6875 C88.29488522 9.29614821 85.1354458 10.12585871 80.98834229 10.12025452 C80.2003273 10.12162918 79.41231232 10.12300385 78.60041809 10.12442017 C77.74518051 10.12082489 76.88994293 10.11722961 76.00878906 10.11352539 C75.10112289 10.11367142 74.19345673 10.11381744 73.25828552 10.1139679 C70.26070763 10.11327171 67.26319202 10.10549302 64.265625 10.09765625 C62.1862593 10.09579103 60.10689315 10.09436762 58.02752686 10.09336853 C52.55636378 10.08955157 47.08522728 10.07972826 41.61407471 10.06866455 C36.03048054 10.05843281 30.44688209 10.05386713 24.86328125 10.04882812 C13.9088425 10.03810528 2.95442346 10.02103868 -8 10 C-5.95933017 5.73384496 -3.41446998 3.26601476 0 0 Z " fill="#143829" transform="translate(212,329)"/>
<path d="M0 0 C31.68 0 63.36 0 96 0 C96 0.66 96 1.32 96 2 C67.95 2 39.9 2 11 2 C11.33 2.99 11.66 3.98 12 5 C11.67 5.33 11.34 5.66 11 6 C7.6875 5.875 7.6875 5.875 4 5 C2.68 3.35 1.36 1.7 0 0 Z " fill="#081F14" transform="translate(204,349)"/>
<path d="M0 0 C0 0.33 0 0.66 0 1 C21.68248409 1.79257787 43.36915438 2.21315438 65.0625 2.5625 C65.75172043 2.5736018 66.44094086 2.5847036 67.15104675 2.59614182 C75.76730568 2.73457672 84.38362351 2.86908546 93 3 C93 3.33 93 3.66 93 4 C91.19715042 4.00879936 91.19715042 4.00879936 89.35787964 4.01777649 C78.02818539 4.07500252 66.69868311 4.14776375 55.36918449 4.23571491 C49.54463969 4.28043223 43.72016505 4.31968556 37.89550781 4.34643555 C32.27383231 4.37245464 26.65242663 4.41284765 21.03091812 4.46318626 C18.88677452 4.47986432 16.74258424 4.49137274 14.59838486 4.49761391 C11.59378559 4.50724456 8.58987811 4.53529224 5.58544922 4.56762695 C4.69999924 4.56619186 3.81454926 4.56475677 2.90226746 4.5632782 C-2.30661467 4.64249711 -7.08133813 5.08133813 -11 9 C-12.66617115 9.04063832 -14.33388095 9.042721 -16 9 C-15.875 7.25 -15.875 7.25 -15 5 C-9.88668542 1.10943456 -6.3681683 -0.14151485 0 0 Z " fill="#59AD85" transform="translate(203,151)"/>
<path d="M0 0 C31.35 0 62.7 0 95 0 C93.35 1.65 91.7 3.3 90 5 C90 4.01 90 3.02 90 2 C56.02720774 1.81788308 56.02720774 1.81788308 22.0625 2.4375 C20.08636719 2.49635376 20.08636719 2.49635376 18.0703125 2.55639648 C12.35694871 2.48597594 12.35694871 2.48597594 7 4 C4.6505947 3.39239518 2.31470912 2.72870472 0 2 C0 1.34 0 0.68 0 0 Z " fill="#081F15" transform="translate(200,155)"/>
<path d="M0 0 C4.24211059 1.66397558 7.03622424 4.70471775 10.1875 7.875 C10.73341797 8.40480469 11.27933594 8.93460938 11.84179688 9.48046875 C14.60913343 12.24437614 16.28314457 14.15575291 17 18 C14.56131832 18.1079859 12.12740867 18.18726589 9.6875 18.25 C8.99720703 18.28351563 8.30691406 18.31703125 7.59570312 18.3515625 C4.47160851 18.41193148 2.50649389 18.39569835 0 16.4375 C-1.39988172 13.0252883 -1.0592314 10.39972646 -0.6875 6.75 C-0.56761719 5.48671875 -0.44773438 4.2234375 -0.32421875 2.921875 C-0.21722656 1.95765625 -0.11023438 0.9934375 0 0 Z " fill="#3B9775" transform="translate(147,222)"/>
<path d="M0 0 C0.66 0.33 1.32 0.66 2 1 C2.12391543 6.72908701 2.21448818 12.45738824 2.2746582 18.1875 C2.29974946 20.13522943 2.33383061 22.0828652 2.37719727 24.03027344 C2.43808749 26.8355219 2.46626331 29.63952208 2.48828125 32.4453125 C2.51408768 33.31116974 2.5398941 34.17702698 2.56648254 35.06912231 C2.56833382 39.09072736 2.35456556 42.18067094 0.02441406 45.54956055 C-4.03465521 48.83829789 -6.79526979 48.8570768 -11.87890625 48.76171875 C-12.72799057 48.76508743 -13.57707489 48.76845612 -14.45188904 48.77192688 C-16.24134397 48.77162869 -18.03085079 48.75644157 -19.82006836 48.72729492 C-22.55806192 48.6875644 -25.29122205 48.70660722 -28.02929688 48.73242188 C-29.7708521 48.72486369 -31.5123966 48.71391115 -33.25390625 48.69921875 C-34.47902672 48.7096949 -34.47902672 48.7096949 -35.72889709 48.72038269 C-39.9775233 48.61483806 -41.42212397 48.57721123 -44.54663086 45.45629883 C-45.26604858 44.24043091 -45.26604858 44.24043091 -46 43 C-42.535 42.505 -42.535 42.505 -39 42 C-39 42.66 -39 43.32 -39 44 C-38.01 44 -37.02 44 -36 44 C-36 44.99 -36 45.98 -36 47 C-34.95658447 46.94670532 -34.95658447 46.94670532 -33.89208984 46.89233398 C-30.7200181 46.73407387 -27.54755707 46.58569903 -24.375 46.4375 C-23.28058594 46.38142578 -22.18617188 46.32535156 -21.05859375 46.26757812 C-19.99511719 46.21923828 -18.93164062 46.17089844 -17.8359375 46.12109375 C-16.86188965 46.0739624 -15.8878418 46.02683105 -14.88427734 45.97827148 C-11.82500193 46.00131834 -9.0000999 46.42215975 -6 47 C-6 46.01 -6 45.02 -6 44 C-6.99 44 -7.98 44 -9 44 C-8.67 42.68 -8.34 41.36 -8 40 C-5.36 40.33 -2.72 40.66 0 41 C0.33 28.13 0.66 15.26 1 2 C0.34 1.67 -0.32 1.34 -1 1 C-0.67 0.67 -0.34 0.34 0 0 Z " fill="#6450C0" transform="translate(382,238)"/>
<path d="M0 0 C1.06669922 0.01611328 2.13339844 0.03222656 3.23242188 0.04882812 C4.33521484 0.09072266 5.43800781 0.13261719 6.57421875 0.17578125 C8.25741211 0.20961914 8.25741211 0.20961914 9.97460938 0.24414062 C12.73755234 0.30292665 15.49980722 0.39260302 18.26171875 0.48828125 C18.26171875 5.76828125 18.26171875 11.04828125 18.26171875 16.48828125 C17.27171875 16.15828125 16.28171875 15.82828125 15.26171875 15.48828125 C15.26171875 14.82828125 15.26171875 14.16828125 15.26171875 13.48828125 C15.92171875 13.48828125 16.58171875 13.48828125 17.26171875 13.48828125 C17.26171875 10.18828125 17.26171875 6.88828125 17.26171875 3.48828125 C6.69454304 3.16333997 6.69454304 3.16333997 -3.73828125 4.48828125 C-5.95569106 6.3332908 -5.95569106 6.3332908 -6.23828125 9.05078125 C-6.40328125 9.85515625 -6.56828125 10.65953125 -6.73828125 11.48828125 C-7.72828125 11.98328125 -7.72828125 11.98328125 -8.73828125 12.48828125 C-9.06828125 19.74828125 -9.39828125 27.00828125 -9.73828125 34.48828125 C-10.06828125 34.48828125 -10.39828125 34.48828125 -10.73828125 34.48828125 C-10.86234132 30.45003059 -10.9528317 26.41252487 -11.01293945 22.37280273 C-11.03800742 21.00021023 -11.07207207 19.62775023 -11.11547852 18.25561523 C-11.17645656 16.27777429 -11.20189134 14.29893941 -11.2265625 12.3203125 C-11.25274658 11.13155518 -11.27893066 9.94279785 -11.3059082 8.71801758 C-10.17793498 2.29997125 -6.25521166 -0.16725165 0 0 Z " fill="#7EB1F1" transform="translate(346.73828125,219.51171875)"/>
<path d="M0 0 C0.33 0 0.66 0 1 0 C1 7.26 1 14.52 1 22 C1.66 22.33 2.32 22.66 3 23 C-2.75 26.875 -2.75 26.875 -5 28 C-5.66 27.01 -6.32 26.02 -7 25 C-7.66 24.67 -8.32 24.34 -9 24 C-9 20.04 -9 16.08 -9 12 C-6 12 -6 12 0 13 C0 8.71 0 4.42 0 0 Z " fill="#84E0BA" transform="translate(184,172)"/>
<path d="M0 0 C1.06669922 0.01611328 2.13339844 0.03222656 3.23242188 0.04882812 C4.33521484 0.09072266 5.43800781 0.13261719 6.57421875 0.17578125 C8.25741211 0.20961914 8.25741211 0.20961914 9.97460938 0.24414062 C12.73834411 0.30294349 15.49934429 0.38507724 18.26171875 0.48828125 C17.27171875 1.97328125 17.27171875 1.97328125 16.26171875 3.48828125 C13.29643696 3.54450915 10.57321849 3.44511929 7.63671875 3.17578125 C6.83492187 3.11455078 6.033125 3.05332031 5.20703125 2.99023438 C3.22413751 2.83679617 1.24273356 2.66432432 -0.73828125 2.48828125 C-0.73828125 3.14828125 -0.73828125 3.80828125 -0.73828125 4.48828125 C-1.68703125 4.69453125 -2.63578125 4.90078125 -3.61328125 5.11328125 C-6.8947762 6.1558226 -6.8947762 6.1558226 -7.90771484 8.88134766 C-9.04012414 13.79910632 -9.09529717 18.54193456 -9.15234375 23.57421875 C-9.1717099 24.63113922 -9.19107605 25.68805969 -9.21102905 26.77700806 C-9.27061039 30.13901809 -9.31712467 33.50106276 -9.36328125 36.86328125 C-9.40148073 39.14845209 -9.44053361 41.43360883 -9.48046875 43.71875 C-9.57629427 49.30846825 -9.66140414 54.89827201 -9.73828125 60.48828125 C-10.06828125 60.48828125 -10.39828125 60.48828125 -10.73828125 60.48828125 C-10.86506223 52.74716681 -10.95262537 45.00632009 -11.01293945 37.2644043 C-11.03808282 34.63083898 -11.07220209 31.99734343 -11.11547852 29.36401367 C-11.17613335 25.57843816 -11.20449395 21.79378527 -11.2265625 18.0078125 C-11.25236893 16.83056107 -11.27817535 15.65330963 -11.30476379 14.44038391 C-11.30754269 6.34063764 -11.30754269 6.34063764 -8.56640625 2.23632812 C-5.36880252 0.25990869 -3.72868868 -0.09969756 0 0 Z " fill="#83DFBA" transform="translate(128.73828125,219.51171875)"/>
<path d="M0 0 C0.86066574 0.00007553 1.72133148 0.00015106 2.608078 0.00022888 C3.53316666 0.00539017 4.45825531 0.01055145 5.41137695 0.01586914 C6.36156204 0.01728409 7.31174713 0.01869904 8.29072571 0.02015686 C11.3270685 0.02575664 14.36333768 0.03830907 17.3996582 0.05102539 C19.45759985 0.05604042 21.51554265 0.06060332 23.57348633 0.06469727 C28.61973867 0.07572599 33.66593595 0.09299046 38.7121582 0.11352539 C38.7121582 0.44352539 38.7121582 0.77352539 38.7121582 1.11352539 C29.29886882 2.26689991 19.88577645 2.4068906 10.41137695 2.54321289 C3.038682 2.72849528 -3.36859371 3.49766298 -10.2878418 6.11352539 C-10.2878418 6.77352539 -10.2878418 7.43352539 -10.2878418 8.11352539 C-12.2678418 8.77352539 -14.2478418 9.43352539 -16.2878418 10.11352539 C-16.6178418 8.79352539 -16.9478418 7.47352539 -17.2878418 6.11352539 C-15.6849365 5.29853977 -14.08046902 4.48662612 -12.4753418 3.67602539 C-11.58202148 3.22356445 -10.68870117 2.77110352 -9.76831055 2.30493164 C-6.35854248 0.66716903 -3.74103849 -0.01097079 0 0 Z " fill="#84E0BA" transform="translate(203.287841796875,143.886474609375)"/>
<path d="M0 0 C0.33 0 0.66 0 1 0 C1.14560195 3.72875388 1.23417043 7.45677434 1.3125 11.1875 C1.35439453 12.24259766 1.39628906 13.29769531 1.43945312 14.38476562 C1.45556641 15.40634766 1.47167969 16.42792969 1.48828125 17.48046875 C1.51446533 18.41785889 1.54064941 19.35524902 1.56762695 20.32104492 C0.73474242 24.25190167 -0.78227116 25.64001741 -4 28 C-6.9978783 28.49926958 -9.41552932 28.70348428 -12.40625 28.6640625 C-13.20857056 28.66884613 -14.01089111 28.67362976 -14.83752441 28.67855835 C-16.52858448 28.68195067 -18.21971071 28.67279483 -19.91064453 28.65185547 C-22.49270444 28.62507567 -25.07041834 28.65162096 -27.65234375 28.68359375 C-29.29948872 28.68028953 -30.94663099 28.67388302 -32.59375 28.6640625 C-33.36158813 28.67418365 -34.12942627 28.68430481 -34.92053223 28.69473267 C-39.0742382 28.6043418 -40.7973809 28.17021182 -44.02539062 25.45849609 C-44.67701172 24.64719238 -45.32863281 23.83588867 -46 23 C-45.34 22.34 -44.68 21.68 -44 21 C-44 21.66 -44 22.32 -44 23 C-42.68 23 -41.36 23 -40 23 C-38.65835921 23.2981424 -37.32148827 23.62243192 -36 24 C-36 24.99 -36 25.98 -36 27 C-35.16750732 26.96447021 -34.33501465 26.92894043 -33.47729492 26.89233398 C-30.38566042 26.76303921 -27.29387682 26.63874163 -24.2019043 26.51782227 C-22.2067109 26.43826601 -20.21174989 26.35294995 -18.21679688 26.26757812 C-16.96318359 26.21923828 -15.70957031 26.17089844 -14.41796875 26.12109375 C-12.68196411 26.05039673 -12.68196411 26.05039673 -10.91088867 25.97827148 C-8 26 -8 26 -5 27 C-1.60182521 19.65892594 -1.60182521 19.65892594 -2 12 C-1.75867872 9.9279656 -1.43760371 7.86453794 -1.0625 5.8125 C-0.86785156 4.72582031 -0.67320312 3.63914062 -0.47265625 2.51953125 C-0.23869141 1.27236328 -0.23869141 1.27236328 0 0 Z " fill="#3C866A" transform="translate(164,258)"/>

</svg>